<?xml version="1.0" encoding="utf-8"?>
<!-- Generator: Adobe Illustrator 21.1.0, SVG Export Plug-In . SVG Version: 6.00 Build 0)  -->
<svg version="1.1" id="Layer_1" xmlns="http://www.w3.org/2000/svg" xmlns:xlink="http://www.w3.org/1999/xlink" x="0px" y="0px"
	 viewBox="0 0 612 792" style="enable-background:new 0 0 612 792;" xml:space="preserve">
<style type="text/css">
	.st0{fill:#E6E7E8;}
	.st1{fill:#12A7DD;}
	.st2{fill:#37B7EA;}
	.st3{fill:none;stroke:#3A4E55;stroke-width:2.4739;stroke-linecap:round;stroke-linejoin:round;stroke-miterlimit:10;}
	.st4{fill:#95D8F2;}
	.st5{fill:#37B7EA;stroke:#3A4E55;stroke-width:1.2763;stroke-miterlimit:10;}
	.st6{fill:#E0E1E2;}
	.st7{fill:#BCBEC0;stroke:#3A4E55;stroke-width:1.6541;stroke-miterlimit:10;}
	.st8{fill:none;stroke:#3A4E55;stroke-width:1.2763;stroke-miterlimit:10;}
	.st9{fill:none;stroke:#3A4E55;stroke-width:2.2853;stroke-linecap:round;stroke-linejoin:round;stroke-miterlimit:10;}
	.st10{fill:#3A4E55;}
	.st11{fill:#036FA5;}
</style>
<g>
	<path class="st0" d="M122.4,218h-56c-7.8,0-14.2-6.4-14.2-14.2v-56c0-7.8,6.4-14.2,14.2-14.2h56c7.8,0,14.2,6.4,14.2,14.2v56
		C136.6,211.6,130.2,218,122.4,218z"/>
	<g>
		<defs>
			<path id="SVGID_1_" d="M122.4,218h-56c-7.8,0-14.2-6.4-14.2-14.2v-56c0-7.8,6.4-14.2,14.2-14.2h56c7.8,0,14.2,6.4,14.2,14.2v56
				C136.6,211.6,130.2,218,122.4,218z"/>
		</defs>
		<clipPath id="SVGID_2_">
			<use xlink:href="#SVGID_1_"  style="overflow:visible;"/>
		</clipPath>
	</g>
	<path class="st1" d="M100.8,205.4c-1-2.3-2.1-5.1-3.1-7.7c-2.5-6.4,7-7.4,7-7.4s20.3-1,21.5-24.6c0,0-6.5,6.6-12.2,5.8
		s-13.8-4.7-20.4,7.2l0,0c-6.6-11.9-14.7-8-20.4-7.2c-5.7,0.8-12.2-5.8-12.2-5.8c1.2,23.6,21.5,24.6,21.5,24.6s8.8,1,7,7.4
		c-0.8,2.9-1.6,5.4-2.5,7.6l1.8,3.2l2.4,1.9l2.3,0.6h1.5L98,209l2.1-2.8L100.8,205.4z"/>
	<path class="st2" d="M113.9,171.5c-5.7-0.8-13.8-4.7-20.4,7.2c-1-1.7-2-3.1-3-4.2c0.4,8.7,1.8,28.2,7,34.7l0.3-0.2l2.1-2.8l0.7-0.7
		c-1-2.3-2.1-5.1-3.1-7.7c-2.5-6.4,7-7.4,7-7.4s20.3-1,21.5-24.6C126.1,165.7,119.6,172.3,113.9,171.5z"/>
	<path class="st3" d="M93.6,178.7c-6.6-11.9-14.7-8-20.4-7.2c-5.7,0.8-12.2-5.8-12.2-5.8c1.2,23.6,21.5,24.6,21.5,24.6s8.8,1,7,7.4
		c-0.8,2.9-1.6,5.4-2.5,7.6"/>
	<path class="st3" d="M93.6,178.7c6.6-11.9,14.7-8,20.4-7.2s12.2-5.8,12.2-5.8c-1.2,23.6-21.5,24.6-21.5,24.6s-9.5,1-7,7.4
		c1,2.6,2.1,5.3,3.1,7.7"/>
	<path class="st4" d="M52.7,209.4c0,0,8.6-4.1,16.2-8.5c0.4-0.2,5.1,0,5.1,0s3.8,0,4.1,0s5.8,3.3,5.8,3.3s5.6,2.6,6.7,2.9
		c1,0.3,9.6-0.9,9.6-0.9l6.3-3.6l5-1.7l9.8,1.7c0,0,22.1,5.3,13.5,8.3c-0.5,0.2-4.5,4.6-4.9,5c-0.4,0.3-13.1,3.4-13.1,3.4H91.1
		l-31.6-2.5L52.7,209.4z"/>
	
		<rect x="68.2" y="145.5" transform="matrix(0.9565 -0.2918 0.2918 0.9565 -41.2038 28.8744)" class="st5" width="16" height="14.2"/>
	<path class="st6" d="M97,151.2c0,0-4.2,13.6-13.2,12.2l14,2.3l2.1-14.1L97,151.2z"/>
	
		<rect x="68.2" y="145.5" transform="matrix(0.9565 -0.2918 0.2918 0.9565 -41.2038 28.8744)" class="st7" width="16" height="14.2"/>
	
		<rect x="104.4" y="147.2" transform="matrix(0.9975 -7.025211e-02 7.025211e-02 0.9975 -10.5605 8.2778)" class="st7" width="16" height="14.2"/>
	<rect x="83" y="150.6" transform="matrix(0.9883 0.1528 -0.1528 0.9883 25.1568 -12.0525)" class="st7" width="16" height="14.2"/>
	<g>
		<path class="st3" d="M135.3,207.5c-10.2,0-10.2-6.6-20.5-6.6c-10.2,0-10.2,6.6-20.5,6.6c-10.2,0-10.2-6.6-20.5-6.6
			s-10.2,6.6-20.5,6.6"/>
	</g>
	<g>
		<line class="st8" x1="108.5" y1="151.4" x2="108.8" y2="157.6"/>
		<line class="st8" x1="112.2" y1="151.2" x2="112.6" y2="157.4"/>
		<line class="st8" x1="116" y1="151" x2="116.3" y2="157.2"/>
	</g>
	<g>
		<line class="st8" x1="87.4" y1="154.3" x2="86.6" y2="160.5"/>
		<line class="st8" x1="91.1" y1="154.9" x2="90.3" y2="161"/>
		<line class="st8" x1="94.9" y1="155.4" x2="94" y2="161.5"/>
	</g>
	<g>
		<line class="st8" x1="71.4" y1="150.7" x2="73.1" y2="156.7"/>
		<line class="st8" x1="75.1" y1="149.7" x2="76.8" y2="155.7"/>
		<line class="st8" x1="78.7" y1="148.7" x2="80.4" y2="154.6"/>
	</g>
	<path class="st9" d="M122.4,218h-56c-7.8,0-14.2-6.4-14.2-14.2v-56c0-7.8,6.4-14.2,14.2-14.2h56c7.8,0,14.2,6.4,14.2,14.2v56
		C136.6,211.6,130.2,218,122.4,218z"/>
</g>
<path class="st10" d="M197.2,160.9v31.3c0,7.6-6.2,13.8-13.6,13.8c-7.6,0-13.8-6.2-13.8-13.8v-31.3c0-7.5,6.2-13.6,13.8-13.6
	C191,147.3,197.2,153.4,197.2,160.9z M189.6,160.9c0-3.3-2.7-6.1-6.1-6.1c-3.4,0-6.2,2.7-6.2,6.1v31.3c0,3.4,2.7,6.2,6.2,6.2
	c3.3,0,6.1-2.7,6.1-6.2V160.9z"/>
<path class="st10" d="M245.6,160.9v5.7c0,7.6-6.2,13.8-13.6,13.8h-6.2v23.7c0,0.9-0.8,1.9-1.9,1.9H220c-0.9,0-1.9-0.9-1.9-1.9v-23.7
	v-7.6v-23.6c0-1.1,0.9-1.9,1.9-1.9h11.9C239.4,147.3,245.6,153.4,245.6,160.9z M238,160.9c0-3.3-2.7-6.1-6.1-6.1h-6.2v17.9h6.2
	c3.3,0,6.1-2.7,6.1-6.2V160.9z"/>
<path class="st10" d="M270.7,154.9v17.9H281c1.1,0,1.9,0.8,1.9,1.9v3.8c0,1.1-0.8,1.9-1.9,1.9h-10.3v18H281c1.1,0,1.9,0.8,1.9,1.9
	v3.8c0,1.1-0.8,1.9-1.9,1.9h-14.1c-2.1,0-3.8-1.8-3.8-3.8v-51.1c0-2.1,1.7-3.8,3.8-3.8H281c1.1,0,1.9,0.8,1.9,1.9v3.8
	c0,1.1-0.8,1.9-1.9,1.9H270.7z"/>
<path class="st11" d="M362.4,154.9v17.9h10.3c1.1,0,1.9,0.8,1.9,1.9v3.8c0,1.1-0.8,1.9-1.9,1.9h-10.3v23.7c0,1.1-0.8,1.9-1.9,1.9
	h-3.8c-1.1,0-1.9-0.8-1.9-1.9v-53c0-2.1,1.7-3.8,3.8-3.8h14.1c1.1,0,1.9,0.8,1.9,1.9v3.8c0,1.1-0.8,1.9-1.9,1.9H362.4z"/>
<path class="st11" d="M422.2,161v43.1c0,1.1-0.8,1.9-1.9,1.9h-3.8c-1.1,0-1.9-0.8-1.9-1.9v-23.6h-12.2v23.6c0,1.1-0.8,1.9-1.9,1.9
	h-3.8c-1.1,0-1.9-0.8-1.9-1.9V161c0-7.5,6.2-13.6,13.8-13.6C416,147.4,422.2,153.6,422.2,161z M414.6,161c0-3.3-2.7-6.1-6.1-6.1
	c-3.4,0-6.2,2.7-6.2,6.1v11.9h12.2V161z"/>
<path class="st11" d="M470.2,161v43.1c0,1.1-0.8,1.9-1.9,1.9h-3.8c-1.1,0-1.9-0.8-1.9-1.9v-23.6h-12.2v23.6c0,1.1-0.8,1.9-1.9,1.9
	h-3.8c-1.1,0-1.9-0.8-1.9-1.9V161c0-7.5,6.2-13.6,13.8-13.6C464.1,147.4,470.2,153.6,470.2,161z M462.7,161c0-3.3-2.7-6.1-6-6.1
	c-3.4,0-6.2,2.7-6.2,6.1v11.9h12.2V161z"/>
<path class="st11" d="M508.4,164.9v-4c0-3.3-2.7-6.1-6.1-6.1c-3.3,0-6,2.7-6,6.1c0,1.5,0,1.5,0.4,2l16.5,21.8
	c2.8,3.8,2.8,3.8,2.8,7.6c0,7.5-6.2,13.6-13.6,13.6c-7.5,0-13.6-6.2-13.6-13.6v-4c0-1.1,0.8-1.9,1.9-1.9h3.8c1.1,0,1.9,0.8,1.9,1.9
	v4c0,3.3,2.7,6.1,6,6.1c3.3,0,6.1-2.7,6.1-6.1c0-1.5,0-1.5-0.4-2l-16.5-21.8c-2.8-3.8-2.8-3.8-2.8-7.6c0-7.5,6.2-13.6,13.6-13.6
	c7.5,0,13.6,6.2,13.6,13.6v4c0,1.1-0.8,1.9-1.9,1.9h-3.8C509.2,166.8,508.4,166,508.4,164.9z"/>
<path class="st10" d="M317.4,147.7c-2.2,0-4.3,0.5-6.2,1.5V149c0-0.9-0.8-1.9-1.9-1.9h-3.8c-1.1,0-1.9,0.9-1.9,1.9v12.3v13.4v29.3
	c0,0.9,0.8,1.9,1.9,1.9h3.8c1.1,0,1.9-0.9,1.9-1.9v-29.3v-13.4c0-3.3,2.7-6.1,6.2-6.1c3.3,0,6.1,2.7,6.1,6.1v42.7
	c0,0.9,0.8,1.9,1.9,1.9h3.8c1.1,0,1.9-0.9,1.9-1.9v-42.7C331,153.9,324.9,147.7,317.4,147.7z"/>
</svg>
